0
SECTION
2
ENTITIES
0
TEXT
8
0
10
27.00
20
42.00
40
2.00
1
Bracket, front
0
LINE
8
0
10
17.00
20
36.00
11
57.00
21
36.00
0
LINE
8
0
10
57.00
20
36.00
11
57.00
21
12.00
0
LINE
8
0
10
57.00
20
12.00
11
17.00
21
12.00
0
LINE
8
0
10
17.00
20
12.00
11
17.00
21
36.00
0
CIRCLE
8
0
10
25.00
20
24.00
40
3.00
0
CIRCLE
8
0
10
49.00
20
24.00
40
3.00
0
LINE
8
0
10
41.00
20
24.00
11
40.75
21
24.75
0
LINE
8
0
10
40.75
20
24.75
11
40.50
21
25.50
0
LINE
8
0
10
40.50
20
25.50
11
39.75
21
26.00
0
LINE
8
0
10
39.75
20
26.00
11
39.00
21
26.50
0
LINE
8
0
10
39.00
20
26.50
11
38.00
21
27.00
0
LINE
8
0
10
38.00
20
27.00
11
37.00
21
27.00
0
LINE
8
0
10
37.00
20
27.00
11
36.25
21
27.00
0
LINE
8
0
10
36.25
20
27.00
11
35.25
21
26.50
0
LINE
8
0
10
35.25
20
26.50
11
34.50
21
26.00
0
LINE
8
0
10
34.50
20
26.00
11
33.75
21
25.50
0
LINE
8
0
10
33.75
20
25.50
11
33.50
21
24.75
0
LINE
8
0
10
33.50
20
24.75
11
33.25
21
24.00
0
LINE
8
0
10
33.25
20
24.00
11
33.50
21
23.50
0
LINE
8
0
10
33.50
20
23.50
11
33.75
21
22.75
0
LINE
8
0
10
33.75
20
22.75
11
34.50
21
22.25
0
LINE
8
0
10
34.50
20
22.25
11
35.25
21
21.75
0
LINE
8
0
10
35.25
20
21.75
11
36.25
21
21.25
0
LINE
8
0
10
36.25
20
21.25
11
37.00
21
21.25
0
LINE
8
0
10
37.00
20
21.25
11
38.00
21
21.25
0
LINE
8
0
10
38.00
20
21.25
11
39.00
21
21.75
0
LINE
8
0
10
39.00
20
21.75
11
39.75
21
22.25
0
LINE
8
0
10
39.75
20
22.25
11
40.50
21
22.75
0
LINE
8
0
10
40.50
20
22.75
11
40.75
21
23.50
0
LINE
8
0
10
40.75
20
23.50
11
41.00
21
24.00
0
LINE
8
1
10
25.00
20
40.00
11
25.00
21
8.00
0
LINE
8
1
10
49.00
20
40.00
11
49.00
21
8.00
0
LINE
8
1
10
13.00
20
24.00
11
61.00
21
24.00
0
LINE
8
0
10
17.00
20
9.00
11
17.00
21
7.00
0
LINE
8
0
10
57.00
20
9.00
11
57.00
21
7.00
0
LINE
8
0
10
17.00
20
8.00
11
57.00
21
8.00
0
LINE
8
0
10
17.00
20
8.00
11
18.75
21
8.75
0
LINE
8
0
10
17.00
20
8.00
11
18.75
21
7.25
0
LINE
8
0
10
57.00
20
8.00
11
55.25
21
7.25
0
LINE
8
0
10
57.00
20
8.00
11
55.25
21
8.75
0
TEXT
8
0
10
32.50
20
10.00
40
1.00
1
200 mm
0
LINE
8
0
10
60.00
20
36.00
11
62.00
21
36.00
0
LINE
8
0
10
60.00
20
12.00
11
62.00
21
12.00
0
LINE
8
0
10
61.00
20
36.00
11
61.00
21
12.00
0
LINE
8
0
10
61.00
20
36.00
11
61.75
21
34.25
0
LINE
8
0
10
61.00
20
36.00
11
60.25
21
34.25
0
LINE
8
0
10
61.00
20
12.00
11
60.25
21
13.75
0
LINE
8
0
10
61.00
20
12.00
11
61.75
21
13.75
0
TEXT
8
0
10
62.25
20
24.00
40
1.00
1
120 mm
0
LINE
8
0
10
17.00
20
41.00
11
17.00
21
39.00
0
LINE
8
0
10
25.00
20
41.00
11
25.00
21
39.00
0
LINE
8
0
10
17.00
20
40.00
11
25.00
21
40.00
0
LINE
8
0
10
17.00
20
40.00
11
18.75
21
40.75
0
LINE
8
0
10
17.00
20
40.00
11
18.75
21
39.25
0
LINE
8
0
10
25.00
20
40.00
11
23.25
21
39.25
0
LINE
8
0
10
25.00
20
40.00
11
23.25
21
40.75
0
TEXT
8
0
10
17.25
20
42.00
40
1.00
1
40 mm
0
LINE
8
1
10
61.00
20
4.00
11
52.00
21
22.00
0
LINE
8
1
10
52.00
20
22.00
11
53.25
21
20.75
0
LINE
8
1
10
52.00
20
22.00
11
52.25
21
20.25
0
TEXT
8
1
10
57.00
20
2.00
40
1.00
1
M6 thru
0
LINE
8
0
10
67.00
20
36.00
11
87.00
21
36.00
0
LINE
8
0
10
87.00
20
36.00
11
87.00
21
12.00
0
LINE
8
0
10
87.00
20
12.00
11
67.00
21
12.00
0
LINE
8
0
10
67.00
20
12.00
11
67.00
21
36.00
0
TEXT
8
1
10
73.00
20
9.00
40
1.00
1
A-A
0
TEXT
8
1
10
89.00
20
29.00
40
1.00
1
SECTION
50
270
0
LINE
8
2
10
9.00
20
48.00
11
97.00
21
48.00
0
LINE
8
2
10
97.00
20
48.00
11
97.00
21
0.00
0
LINE
8
2
10
97.00
20
0.00
11
9.00
21
0.00
0
LINE
8
2
10
9.00
20
0.00
11
9.00
21
48.00
0
LINE
8
2
10
71.00
20
6.00
11
97.00
21
6.00
0
LINE
8
2
10
97.00
20
6.00
11
97.00
21
0.00
0
LINE
8
2
10
97.00
20
0.00
11
71.00
21
0.00
0
LINE
8
2
10
71.00
20
0.00
11
71.00
21
6.00
0
LINE
8
2
10
71.00
20
3.00
11
97.00
21
3.00
0
TEXT
8
2
10
72.00
20
5.00
40
1.00
1
bracket.d
0
TEXT
8
2
10
72.00
20
2.00
40
1.00
1
Aug 2026
0
TEXT
8
2
10
90.00
20
2.00
40
1.00
1
Rev A
0
ENDSEC
0
EOF
