999
mounting plate, R10 entity subset -- the veldxf import demo
0
SECTION
2
ENTITIES
0
LINE
8
0
10
0
20
0
11
100
21
0
0
LINE
8
0
10
100
20
0
11
100
21
60
0
LINE
8
0
10
100
20
60
11
20
21
60
0
ARC
8
0
10
20
20
40
40
20
50
90
51
180
0
LINE
8
0
10
0
20
40
11
0
21
0
0
CIRCLE
8
0
10
10
20
10
40
3
0
CIRCLE
8
0
10
90
20
10
40
3
0
CIRCLE
8
0
10
90
20
50
40
3
0
CIRCLE
8
0
10
50
20
30
40
12
0
LWPOLYLINE
8
1
90
4
10
40
20
6
10
60
20
6
10
60
20
12
10
40
20
12
0
TEXT
8
1
10
8
20
52
40
4
1
PLATE-1
0
ENDSEC
0
EOF
